HIERARCHY
ROOT Hips
{
    OFFSET   0.000000   0.000000   0.000000
    CHANNELS 6 Xposition Yposition Zposition Zrotation Xrotation Yrotation
    JOINT Chest
    {
        OFFSET   0.000000   8.007230   0.000000
        CHANNELS 3 Zrotation Xrotation Yrotation
        JOINT Chest2
        {
            OFFSET   0.000000  22.077100   0.000000
            CHANNELS 3 Zrotation Xrotation Yrotation
            JOINT Neck
            {
                OFFSET   0.000000  23.254800  -0.000021
                CHANNELS 3 Zrotation Xrotation Yrotation
                JOINT Head
                {
                    OFFSET   0.000000  14.370000   1.956610
                    CHANNELS 3 Zrotation Xrotation Yrotation
                    End Site
                    {
                        OFFSET   0.000000  19.566000   0.000000
                    }
                }
            }
            JOINT LeftCollar
            {
                OFFSET   3.911900  19.017000  -0.467063
                CHANNELS 3 Zrotation Xrotation Yrotation
                JOINT LeftShoulder
                {
                    OFFSET  10.383700   0.000000   0.000000
                    CHANNELS 3 Zrotation Xrotation Yrotation
                    JOINT LeftElbow
                    {
                        OFFSET  26.662100   0.001529   0.000325
                        CHANNELS 3 Zrotation Xrotation Yrotation
                        JOINT LeftWrist
                        {
                            OFFSET  28.869000  -0.000011  -0.000096
                            CHANNELS 3 Zrotation Xrotation Yrotation
                            JOINT LeftFinger0
                            {
                                OFFSET   2.044650  -2.323460   3.252850
                                CHANNELS 3 Zrotation Xrotation Yrotation
                                JOINT LeftFinger01
                                {
                                    OFFSET   3.088130   0.000000   0.000000
                                    CHANNELS 3 Zrotation Xrotation Yrotation
                                    JOINT LeftFinger02
                                    {
                                        OFFSET   2.639460   0.000000   0.000000
                                        CHANNELS 3 Zrotation Xrotation Yrotation
                                        End Site
                                        {
                                            OFFSET   2.582190   0.000000   0.000000
                                        }
                                    }
                                }
                            }
                            JOINT LeftFinger1
                            {
                                OFFSET   8.364480   0.000000   3.252850
                                CHANNELS 3 Zrotation Xrotation Yrotation
                                JOINT LeftFinger11
                                {
                                    OFFSET   4.646930   0.000000   0.000000
                                    CHANNELS 3 Zrotation Xrotation Yrotation
                                    JOINT LeftFinger12
                                    {
                                        OFFSET   2.323460   0.000000   0.000000
                                        CHANNELS 3 Zrotation Xrotation Yrotation
                                        End Site
                                        {
                                            OFFSET   2.273050   0.000000   0.000000
                                        }
                                    }
                                }
                            }
                            JOINT LeftFinger2
                            {
                                OFFSET   8.364480   0.000016   1.078090
                                CHANNELS 3 Zrotation Xrotation Yrotation
                                JOINT LeftFinger21
                                {
                                    OFFSET   5.111620   0.000000   0.000000
                                    CHANNELS 3 Zrotation Xrotation Yrotation
                                    JOINT LeftFinger22
                                    {
                                        OFFSET   2.788160   0.000017   0.000000
                                        CHANNELS 3 Zrotation Xrotation Yrotation
                                        End Site
                                        {
                                            OFFSET   2.727660   0.000000   0.000000
                                        }
                                    }
                                }
                            }
                            JOINT LeftFinger3
                            {
                                OFFSET   7.899780   0.000015  -1.078090
                                CHANNELS 3 Zrotation Xrotation Yrotation
                                JOINT LeftFinger31
                                {
                                    OFFSET   4.646920   0.000000   0.000000
                                    CHANNELS 3 Zrotation Xrotation Yrotation
                                    JOINT LeftFinger32
                                    {
                                        OFFSET   2.323470   0.000000   0.000000
                                        CHANNELS 3 Zrotation Xrotation Yrotation
                                        End Site
                                        {
                                            OFFSET   2.273050   0.000000   0.000000
                                        }
                                    }
                                }
                            }
                            JOINT LeftFinger4
                            {
                                OFFSET   7.435090   0.000000  -3.252850
                                CHANNELS 3 Zrotation Xrotation Yrotation
                                JOINT LeftFinger41
                                {
                                    OFFSET   3.717550   0.000000   0.000000
                                    CHANNELS 3 Zrotation Xrotation Yrotation
                                    JOINT LeftFinger42
                                    {
                                        OFFSET   1.858760   0.000000   0.000000
                                        CHANNELS 3 Zrotation Xrotation Yrotation
                                        End Site
                                        {
                                            OFFSET   1.818440   0.000000   0.000000
                                        }
                                    }
                                }
                            }
                        }
                    }
                }
            }
            JOINT RightCollar
            {
                OFFSET  -3.911900  19.017000  -0.467062
                CHANNELS 3 Zrotation Xrotation Yrotation
                JOINT RightShoulder
                {
                    OFFSET -10.383700   0.000015   0.000000
                    CHANNELS 3 Zrotation Xrotation Yrotation
                    JOINT RightElbow
                    {
                        OFFSET -26.662100   0.001341   0.000385
                        CHANNELS 3 Zrotation Xrotation Yrotation
                        JOINT RightWrist
                        {
                            OFFSET -28.869000   0.000025  -0.000080
                            CHANNELS 3 Zrotation Xrotation Yrotation
                            JOINT RightFinger0
                            {
                                OFFSET  -2.044650  -2.323490   3.252850
                                CHANNELS 3 Zrotation Xrotation Yrotation
                                JOINT RightFinger01
                                {
                                    OFFSET  -3.088130   0.000000   0.000000
                                    CHANNELS 3 Zrotation Xrotation Yrotation
                                    JOINT RightFinger02
                                    {
                                        OFFSET  -2.639460   0.000000   0.000000
                                        CHANNELS 3 Zrotation Xrotation Yrotation
                                        End Site
                                        {
                                            OFFSET  -2.582190   0.000000   0.000000
                                        }
                                    }
                                }
                            }
                            JOINT RightFinger1
                            {
                                OFFSET  -8.364480   0.000000   3.252850
                                CHANNELS 3 Zrotation Xrotation Yrotation
                                JOINT RightFinger11
                                {
                                    OFFSET  -4.646930   0.000000   0.000000
                                    CHANNELS 3 Zrotation Xrotation Yrotation
                                    JOINT RightFinger12
                                    {
                                        OFFSET  -2.323470   0.000000   0.000000
                                        CHANNELS 3 Zrotation Xrotation Yrotation
                                        End Site
                                        {
                                            OFFSET  -2.273050   0.000000   0.000000
                                        }
                                    }
                                }
                            }
                            JOINT RightFinger2
                            {
                                OFFSET  -8.364480   0.000000   1.078090
                                CHANNELS 3 Zrotation Xrotation Yrotation
                                JOINT RightFinger21
                                {
                                    OFFSET  -5.111610   0.000000   0.000000
                                    CHANNELS 3 Zrotation Xrotation Yrotation
                                    JOINT RightFinger22
                                    {
                                        OFFSET  -2.788160   0.000000   0.000000
                                        CHANNELS 3 Zrotation Xrotation Yrotation
                                        End Site
                                        {
                                            OFFSET  -2.727660   0.000000   0.000000
                                        }
                                    }
                                }
                            }
                            JOINT RightFinger3
                            {
                                OFFSET  -7.899780   0.000000  -1.078090
                                CHANNELS 3 Zrotation Xrotation Yrotation
                                JOINT RightFinger31
                                {
                                    OFFSET  -4.646920   0.000000   0.000000
                                    CHANNELS 3 Zrotation Xrotation Yrotation
                                    JOINT RightFinger32
                                    {
                                        OFFSET  -2.323470   0.000000   0.000000
                                        CHANNELS 3 Zrotation Xrotation Yrotation
                                        End Site
                                        {
                                            OFFSET  -2.273050   0.000000   0.000000
                                        }
                                    }
                                }
                            }
                            JOINT RightFinger4
                            {
                                OFFSET  -7.435090   0.000000  -3.252850
                                CHANNELS 3 Zrotation Xrotation Yrotation
                                JOINT RightFinger41
                                {
                                    OFFSET  -3.717550   0.000000   0.000000
                                    CHANNELS 3 Zrotation Xrotation Yrotation
                                    JOINT RightFinger42
                                    {
                                        OFFSET  -1.858770   0.000000   0.000000
                                        CHANNELS 3 Zrotation Xrotation Yrotation
                                        End Site
                                        {
                                            OFFSET  -1.818440   0.000000   0.000000
                                        }
                                    }
                                }
                            }
                        }
                    }
                }
            }
        }
    }
    JOINT LeftHip
    {
        OFFSET   9.783010   0.000000   0.000000
        CHANNELS 3 Zrotation Xrotation Yrotation
        JOINT LeftKnee
        {
            OFFSET   0.000070 -41.789100   0.000028
            CHANNELS 3 Zrotation Xrotation Yrotation
            JOINT LeftAnkle
            {
                OFFSET   0.000087 -41.133200  -0.000100
                CHANNELS 3 Zrotation Xrotation Yrotation
                JOINT LeftToe
                {
                    OFFSET   0.000000  -6.358960  14.674500
                    CHANNELS 3 Zrotation Xrotation Yrotation
                    End Site
                    {
                        OFFSET   0.000000   0.000000   3.913200
                    }
                }
            }
        }
    }
    JOINT RightHip
    {
        OFFSET  -9.783020   0.000000   0.000000
        CHANNELS 3 Zrotation Xrotation Yrotation
        JOINT RightKnee
        {
            OFFSET   0.000044 -41.789100  -0.000870
            CHANNELS 3 Zrotation Xrotation Yrotation
            JOINT RightAnkle
            {
                OFFSET  -0.000090 -41.133200  -0.000245
                CHANNELS 3 Zrotation Xrotation Yrotation
                JOINT RightToe
                {
                    OFFSET   0.000000  -6.358960  14.674500
                    CHANNELS 3 Zrotation Xrotation Yrotation
                    End Site
                    {
                        OFFSET   0.000000   0.000000   3.913200
                    }
                }
            }
        }
    }
}
MOTION
Frames: 4
Frame Time:   0.016667
  0.005392  89.607200  -0.578991  -2.896880  -7.719730  -2.487970   0.865724   4.789820   0.260649   1.718560   9.583020   0.450722   0.074271  -0.505196   0.001372   0.122034  -1.024550   4.317910  -4.377970  -2.092420   0.645563 -74.381800  17.333300   0.013700  -1.535200  -2.474590 -18.006300  14.447300 -10.802800   6.690980  41.869800  36.235900 -63.988000 -31.206200  -0.002303   0.006292 -10.604100   0.013958   0.002834 -24.269500   3.368500  -7.409710 -20.036300  -0.007886   0.000642 -14.025400  -0.005629   0.001572 -26.316800  -0.664868   1.343920 -26.324600   0.001890   0.005420 -17.532200  -0.001380  -0.010783 -25.789600  -0.652446   1.350000 -25.797300   0.002814   0.001715 -17.185200   0.002002   0.000156 -26.263100  -0.663729   1.344480 -39.416200   0.002692  -0.002355 -26.247300   0.001524   0.000948  10.125100   0.628815   5.221410  67.999400  12.503300  -5.244730   0.079333 -11.543600  14.509000 -10.818900  -1.603180  -7.616910 -36.864700  24.805700  63.240000  26.245900   0.000770  -0.001623   8.122980   0.002045  -0.000856  38.281600   6.744590   8.463910  31.723000   0.000919  -0.001190  22.206200   0.000782   0.001112  32.747800   0.920856   1.430890  49.152300   0.004848  -0.002251  32.727600   0.001385   0.000599  32.317500   0.909854   1.437910  48.493400  -0.001138  -0.006067  32.296600  -0.004340  -0.000697  48.160300  -3.814590  -3.410950  72.416400  -0.008142   0.007887  48.225700  -0.003296  -0.000786   1.717510   9.634910   3.494320   1.450860  -0.026692  10.688800  -1.687470  -2.799580   2.449990   0.000000   0.000000   0.000000   4.218110   6.847220  -5.011080  -1.877280   3.481930  -6.860420  -0.199583  -3.778970   1.726460  -0.000000   0.000000  -0.000000
  0.009565  89.607200  -0.591353  -2.897260  -7.755040  -2.472040   0.865728   4.803990   0.260508   1.718560   9.611330   0.450160   0.083152  -0.496468   0.001370   0.136617  -1.006890   4.295170  -4.377920  -2.079330   0.651035 -74.359600  17.379200  -0.008197  -1.536890  -2.508530 -18.018400  14.439300 -10.806700   6.691070  41.871500  36.240600 -63.994600 -31.206200  -0.002314   0.006299 -10.603900   0.014103   0.002837 -24.269100   3.368060  -7.412410 -20.036000  -0.007891   0.000688 -14.025200  -0.005685   0.001575 -26.341100  -0.637203   1.286860 -26.348200   0.002030   0.005468 -17.547900  -0.001254  -0.010880 -25.793600  -0.624935   1.292860 -25.800600   0.003009   0.001604 -17.184700   0.002146   0.000194 -26.263700  -0.635693   1.287600 -39.417500   0.002903  -0.002356 -26.246600   0.001640   0.001030  10.125500   0.628919   5.210350  67.992800  12.519100  -5.248380   0.083030 -11.542800  14.527300 -10.825100  -1.616930  -7.642130 -36.849600  24.824000  63.222300  26.303800   0.000760  -0.001598   8.151930   0.002032  -0.000853  38.283900   6.737200   8.454090  31.724300   0.000914  -0.001198  22.207100   0.000771   0.001103  32.750200   0.920922   1.430960  49.153000   0.004846  -0.002260  32.729600   0.001376   0.000596  32.321700   0.909966   1.437950  48.499800  -0.001150  -0.006076  32.300900  -0.004346  -0.000704  48.161500  -3.815050  -3.410950  72.417600  -0.008146   0.007884  48.226900  -0.003306  -0.000777   1.719220   9.623890   3.486460   1.449280   0.058669  10.687700  -1.690740  -2.831440   2.444000   0.000000   0.000000   0.000000   4.228860   6.854920  -5.011150  -1.898330   3.521020  -6.842410  -0.184328  -3.787610   1.679030  -0.000000   0.000000  -0.000000
  0.016267  89.607100  -0.612578  -2.899620  -7.816060  -2.448020   0.865813   4.826990   0.260371   1.718720   9.657310   0.449623   0.097094  -0.481706   0.001368   0.159527  -0.976967   4.256000  -4.377820  -2.056210   0.660980 -74.328600  17.436800  -0.031243  -1.538990  -2.542340 -18.039600  14.428000 -10.810600   6.691180  41.872400  36.246600 -63.999800 -31.206200  -0.002329   0.006312 -10.603600   0.014405   0.002841 -24.269000   3.365080  -7.415090 -20.035700  -0.007902   0.000787 -14.025000  -0.005795   0.001580 -26.382300  -0.594386   1.198370 -26.388400   0.002225   0.005571 -17.574700  -0.001042  -0.011084 -25.800300  -0.582291   1.204290 -25.806400   0.003283   0.001419 -17.184200   0.002349   0.000256 -26.264900  -0.592234   1.199430 -39.420300   0.003200  -0.002358 -26.246000   0.001802   0.001145  10.126000   0.629089   5.186220  67.987600  12.545600  -5.254650   0.087210 -11.542100  14.548100 -10.835800  -1.640150  -7.678100 -36.829100  24.851700  63.200400  26.384100   0.000728  -0.001545   8.192060   0.002000  -0.000833  38.286400   6.729810   8.444270  31.732200   0.000897  -0.001220  22.212600   0.000744   0.001077  32.760700   0.921387   1.431470  49.158300   0.004839  -0.002282  32.739500   0.001351   0.000587  32.335400   0.910747   1.438260  48.520200  -0.001181  -0.006098  32.314500  -0.004363  -0.000722  48.170100  -3.818280  -3.410960  72.425700  -0.008157   0.007878  48.235600  -0.003333  -0.000752   1.721760   9.612910   3.473640   1.446840   0.151223  10.686200  -1.694120  -2.863300   2.436050  -0.000000   0.000000   0.000000   4.247310   6.862620  -5.011230  -1.933720   3.593970  -6.809700  -0.158902  -3.804350   1.603280   0.000000   0.000000   0.000000
  0.021141  89.607000  -0.630586  -2.905550  -7.869740  -2.435480   0.865962   4.843750   0.261887   1.718870   9.690880   0.452547   0.108045  -0.468771   0.001368   0.175767  -0.950630   4.221110  -4.376060  -2.034370   0.670311 -74.312600  17.450600  -0.032571  -1.542090  -2.538410 -18.059600  14.425000 -10.809800   6.696380  41.862800  36.234100 -63.967600 -31.209400  -0.002339   0.006326 -10.605000   0.014810   0.002842 -24.272600   3.357120  -7.400430 -20.037400  -0.007915   0.000924 -14.026200  -0.005941   0.001581 -26.420400  -0.561455   1.129720 -26.425900   0.002306   0.005713 -17.599600  -0.000830  -0.011362 -25.805300  -0.549280   1.135690 -25.810700   0.003400   0.001233 -17.187500   0.002436   0.000319 -26.270900  -0.558591   1.131140 -39.422800   0.003328  -0.002363 -26.250600   0.001870   0.001193  10.126200   0.629241   5.153210  67.992400  12.569000  -5.259550   0.087424 -11.542000  14.549700 -10.846600  -1.659590  -7.693650 -36.824300  24.869900  63.203200  26.411000   0.000671  -0.001477   8.205520   0.001955  -0.000780  38.306500   6.739230   8.448180  31.752500   0.000869  -0.001255  22.226800   0.000706   0.001035  32.784300   0.940979   1.460380  49.190700   0.004828  -0.002315  32.763500   0.001311   0.000572  32.362500   0.930319   1.467200  48.561500  -0.001230  -0.006134  32.341900  -0.004389  -0.000748  48.193300  -3.827010  -3.415170  72.459000  -0.008174   0.007868  48.259100  -0.003378  -0.000710   1.723200   9.637380   3.464210   1.445760   0.159615  10.686000  -1.691280  -2.854030   2.434710   0.000000   0.000000   0.000000   4.263260   6.860460  -5.014160  -1.962790   3.668890  -6.774490  -0.137205  -3.822270   1.548280   0.000000   0.000000   0.000000
